Coordinates
version=1
nRows=26
nColumns=24
inDegrees=yes

Units are S.I. units (second, meters, Newtons, ...)
If the header above contains a line with 'inDegrees', this indicates whether rotational values are in degrees (yes) or radians (no).

endheader
time	pelvis_tilt	pelvis_list	pelvis_rotation	pelvis_tx	pelvis_ty	pelvis_tz	hip_flexion_r	hip_adduction_r	hip_rotation_r	knee_angle_r	ankle_angle_r	subtalar_angle_r	mtp_angle_r	hip_flexion_l	hip_adduction_l	hip_rotation_l	knee_angle_l	ankle_angle_l	subtalar_angle_l	mtp_angle_l	lumbar_extension	lumbar_bending	lumbar_rotation
      0.50000000	      6.97185462	      0.51515788	     -0.18533020	      0.59204903	      1.03684767	     -0.02114215	     15.90491019	     -4.39766047	    -11.41520592	    -17.69858933	     -0.05689623	      0.00000057	      0.00000000	    -17.41168581	      3.76921464	      0.88819310	     -1.81541775	      7.66332888	      0.00000361	      0.00000000	    -25.04274259	     -2.10236822	     -5.93436493
      0.51700000	      6.95979043	      1.16672411	     -0.11753471	      0.59097869	      1.03310235	     -0.02033655	     15.39082894	     -4.50949113	    -10.59737236	    -11.71228003	     -0.20147039	      0.00000107	      0.00000000	    -18.89617857	      4.34230453	      1.26044491	     -1.12228205	      8.09007878	      0.00000349	      0.00000000	    -25.03368734	     -2.65003011	     -6.22647110
      0.53300000	      6.92120859	      1.79801994	      0.15270158	      0.59016661	      1.02904314	     -0.01980297	     14.91375419	     -4.75904674	     -9.42603919	     -6.45399319	      0.02750605	      0.00000145	      0.00000000	    -20.25085451	      4.81009599	      1.85525716	     -0.67857363	      8.62313463	      0.00000342	      0.00000000	    -24.97349362	     -3.09532806	     -6.42222683
      0.55000000	      6.90142274	      2.39157678	      0.03527760	      0.58985354	      1.02494186	     -0.01888409	     14.51081088	     -5.02157963	     -7.66813236	     -2.06924245	      0.45011288	      0.00000176	      0.00000000	    -21.64830422	      5.35492868	      2.09838764	     -0.25900340	      9.08636994	      0.00000346	      0.00000000	    -24.89240718	     -3.50585899	     -6.50346078
      0.56700000	      6.90583753	      2.81847548	     -0.01245960	      0.58909493	      1.02099950	     -0.01812819	     14.42124845	     -5.27290489	     -6.07207728	      0.74314455	      1.08785543	      0.00000168	      0.00000000	    -22.86209028	      5.70021892	      2.41887882	     -0.22066871	      9.67028791	      0.00000359	      0.00000000	    -24.89440625	     -3.73374356	     -6.36709978
      0.58300000	      6.82148281	      3.14397404	      0.63285710	      0.58758671	      1.01755350	     -0.01796032	     14.52407918	     -5.62562658	     -5.63324157	      2.18692941	      1.47443861	      0.00000188	      0.00000000	    -23.51779100	      5.65984802	      3.29825957	     -1.03613155	     10.51720212	      0.00000383	      0.00000000	    -25.05380120	     -3.52326117	     -6.79654729
      0.60000000	      6.83471565	      3.11342337	      0.67114679	      0.58832323	      1.01482285	     -0.01606964	     14.72072839	     -5.40719856	     -5.11388757	      2.12671370	      1.65761198	      0.00000167	      0.00000000	    -24.46799985	      5.40382641	      3.49809482	     -1.67620942	     11.09924392	      0.00000416	      0.00000000	    -24.91660075	     -3.25527679	     -6.49628124
      0.61700000	      6.76750032	      2.80991539	      0.93557912	      0.58899244	      1.01253686	     -0.01365432	     15.28402872	     -4.92646311	     -5.23442219	      0.52700504	      1.33199693	      0.00000148	      0.00000000	    -25.03037264	      4.74553592	      3.73602085	     -2.85217126	     11.77813498	      0.00000467	      0.00000000	    -24.84853526	     -2.66862356	     -6.47985172
      0.63300000	      6.74681763	      2.72552496	      1.44921484	      0.59000104	      1.01106542	     -0.01123053	     15.87383860	     -4.75191669	     -5.72326188	     -2.00989942	      0.55495956	      0.00000113	      0.00000000	    -25.42937181	      4.18391476	      4.27717843	     -4.41180857	     12.25188341	      0.00000525	      0.00000000	    -24.82715133	     -2.22875245	     -6.69355288
      0.65000000	      6.63098848	      2.51563785	      1.92193425	      0.59154946	      1.00990030	     -0.00819743	     16.56389364	     -4.45088077	     -6.32333334	     -4.99071481	     -0.58049185	      0.00000080	      0.00000000	    -25.61689065	      3.50284433	      4.73900911	     -6.17993985	     12.54356164	      0.00000603	      0.00000000	    -24.60178359	     -1.73619962	     -6.97809654
      0.66700000	      6.48634532	      2.39737104	      2.29366139	      0.59352587	      1.00944354	     -0.00566261	     17.16133245	     -4.30806038	     -6.74667000	     -7.95303868	     -1.81191290	      0.00000057	      0.00000000	    -25.53051938	      3.03805859	      5.13022207	     -8.42115497	     12.53257054	      0.00000685	      0.00000000	    -24.32058158	     -1.14272113	     -7.08101700
      0.68300000	      6.54091707	      2.28509335	      2.41258206	      0.59516253	      1.00978014	     -0.00282722	     17.70382363	     -4.15178799	     -6.87354021	    -11.31044576	     -2.52943643	      0.00000044	      0.00000000	    -25.25787872	      2.71887904	      5.22908328	    -11.36320116	     12.23469250	      0.00000788	      0.00000000	    -24.21232863	     -0.60378855	     -6.88723319
      0.70000000	      6.77688850	      1.96723117	      2.73469851	      0.59847798	      1.01120618	     -0.00043452	     17.72267025	     -3.86298369	     -7.13047505	    -14.44001517	     -2.64427884	      0.00000038	      0.00000000	    -24.88478059	      2.12686194	      5.28056149	    -14.90142792	     11.42906483	      0.00000919	      0.00000000	    -24.30228558	      0.15608072	     -6.89925506
      0.71700000	      7.01351437	      1.70003078	      2.98031186	      0.60141876	      1.01310183	      0.00196058	     17.28329904	     -3.59078403	     -7.28982777	    -16.69460909	     -2.59059435	      0.00000036	      0.00000000	    -23.86937287	      1.64254079	      4.98425664	    -19.47366557	     10.14170239	      0.00001084	      0.00000000	    -24.27985498	      0.98537880	     -6.95032611
      0.73300000	      6.99572462	      1.61145328	      3.19008717	      0.60344334	      1.01466053	      0.00497340	     17.08396378	     -3.47707861	     -7.44391881	    -18.85451922	     -2.14291780	      0.00000071	      0.00000000	    -21.57997543	      1.31574962	      4.21744663	    -25.63899028	      8.33120096	      0.00001304	      0.00000000	    -24.07005648	      1.38778418	     -6.80500471
      0.75000000	      6.92136242	      1.36164512	      3.34598520	      0.60582195	      1.01652144	      0.00804146	     16.45689151	     -3.13785959	     -7.71162991	    -20.13403867	     -1.53083611	      0.00000117	      0.00000000	    -18.79904452	      0.67150051	      2.78632537	    -32.15649829	      5.42466600	      0.00001525	      0.00000000	    -23.77578385	      1.95300893	     -7.03039587
      0.76700000	      6.63640026	      1.04302660	      3.55274206	      0.60742517	      1.01814609	      0.01099208	     15.89860286	     -2.70033166	     -7.99637706	    -21.05939607	     -0.62115522	      0.00000144	      0.00000000	    -15.21292878	     -0.37210502	      0.74272001	    -39.09849197	      1.57535745	      0.00001735	      0.00000000	    -23.35328306	      2.52759636	     -6.71560091
      0.78300000	      6.37515261	      0.47328839	      3.75057468	      0.60767867	      1.01974352	      0.01454752	     15.06542973	     -1.88885245	     -8.34768215	    -21.27370243	      0.20133674	      0.00000163	      0.00000000	    -11.42987633	     -2.04862683	     -1.56242215	    -45.73217581	     -2.60740553	      0.00001825	      0.00000000	    -23.02389526	      3.19736800	     -6.33841216
      0.80000000	      6.20929376	     -0.31312061	      3.77512988	      0.60791296	      1.02132737	      0.01833932	     14.10527968	     -0.75074725	     -8.49740757	    -21.36872902	      1.19254106	      0.00000157	      0.00000000	     -7.82289936	     -4.23620167	     -4.02180733	    -51.74706987	     -6.29600102	      0.00001793	      0.00000000	    -22.76641200	      4.01457199	     -5.55997603
      0.81700000	      6.20598518	     -1.14118669	      3.94114044	      0.60798684	      1.02361232	      0.02227689	     12.58034106	      0.49177017	     -8.75699632	    -20.63916104	      1.92859639	      0.00000136	      0.00000000	     -4.69323303	     -6.46612897	     -5.67441688	    -56.73372589	     -8.45843993	      0.00001609	      0.00000000	    -22.53972576	      4.86056736	     -5.38037927
      0.83300000	      6.18848172	     -1.61157277	      4.02403545	      0.60761135	      1.02618561	      0.02578999	     11.11243033	      1.35665938	     -8.80713832	    -19.97030494	      2.69110801	      0.00000130	      0.00000000	     -1.74161524	     -8.06369762	     -6.76891693	    -60.92463587	     -8.89438629	      0.00001351	      0.00000000	    -22.43753973	      5.22900902	     -4.66314720
      0.85000000	      6.23584554	     -1.93457471	      3.91924127	      0.60710883	      1.02913467	      0.02913991	      9.38474951	      2.10792153	     -8.63135198	    -18.87877213	      3.23835620	      0.00000114	      0.00000000	      0.93503856	     -9.11916367	     -7.41738246	    -64.29961472	     -7.94190026	      0.00001097	      0.00000000	    -22.52363621	      5.33579045	     -4.00090072
      0.86700000	      6.35548913	     -1.94482008	      3.74198667	      0.60652974	      1.03231295	      0.03208820	      7.63439999	      2.48935795	     -8.33398535	    -17.94588417	      3.79071395	      0.00000117	      0.00000000	      3.34127182	     -9.52087866	     -7.80592398	    -66.79914508	     -6.38448308	      0.00000918	      0.00000000	    -22.59027918	      5.16361779	     -3.26887963
      0.88300000	      6.31319604	     -1.76988375	      3.62930069	      0.60536409	      1.03534675	      0.03466156	      5.87124571	      2.64892725	     -8.07497548	    -16.57381540	      4.14403539	      0.00000108	      0.00000000	      5.87507206	     -9.39426687	     -7.82897918	    -68.53498527	     -4.79194074	      0.00000823	      0.00000000	    -22.60815383	      4.79517873	     -2.94302721
      0.90000000	      6.42368346	     -1.50124919	      3.33545640	      0.60439488	      1.03830881	      0.03702814	      3.99078709	      2.69067239	     -7.61751728	    -15.32546408	      4.51258386	      0.00000115	      0.00000000	      8.03070111	     -8.92304269	     -7.82769351	    -69.44277669	     -3.41794573	      0.00000820	      0.00000000	    -22.81130147	      4.24045112	     -2.35005845
      0.91700000	      6.39191476	     -1.14377479	      3.13931213	      0.60287061	      1.04076706	      0.03886693	      2.29735099	      2.56985129	     -7.26432843	    -14.07673092	      4.80622019	      0.00000120	      0.00000000	     10.23433645	     -8.12018591	     -7.58341328	    -69.55955667	     -2.32649018	      0.00000893	      0.00000000	    -22.81096252	      3.68540875	     -2.15832851
